<svg xmlns="http://www.w3.org/2000/svg" viewBox="0 0 64 64">
  <rect width="64" height="64" rx="12" fill="#07060e"/>
  <path fill="#fff" d="M10,10h3v1h-3zM25,10h3v3h-3zM36,10h3v1h-3zM50,10h3v2h-3zM10,11h4v1h-4zM35,11h3v1h-3zM11,12h3v2h-3zM34,12h4v1h-4zM49,12h4v1h-4zM26,13h3v2h-3zM34,13h3v2h-3zM49,13h3v1h-3zM11,14h4v1h-4zM48,14h4v1h-4zM12,15h3v2h-3zM26,15h4v1h-4zM33,15h4v1h-4zM48,15h3v2h-3zM27,16h3v2h-3zM33,16h3v2h-3zM12,17h4v1h-4zM47,17h3v3h-3zM13,18h3v1h-3zM28,18h3v2h-3zM32,18h3v2h-3zM14,19h3v3h-3zM28,20h6v1h-6zM46,20h3v2h-3zM29,21h5v4h-5zM15,22h3v2h-3zM45,22h3v3h-3zM15,24h4v1h-4zM16,25h3v1h-3zM28,25h6v1h-6zM16,26h4v1h-4zM28,26h3v2h-3zM32,26h3v2h-3zM38,26h10v1h-10zM17,27h3v2h-3zM37,27h13v1h-13zM27,28h3v2h-3zM33,28h3v2h-3zM37,28h4v1h-4zM46,28h6v1h-6zM17,29h4v1h-4zM37,29h2v1h-2zM48,29h4v1h-4zM18,30h3v1h-3zM26,30h4v1h-4zM33,30h4v1h-4zM42,30h3v1h-3zM49,30h4v1h-4zM18,31h4v1h-4zM26,31h3v1h-3zM34,31h3v2h-3zM42,31h2v1h-2zM50,31h4v1h-4zM19,32h3v2h-3zM26,32h2v1h-2zM32,32h1v1h-1zM41,32h3v2h-3zM51,32h2v1h-2zM25,33h3v2h-3zM31,33h3v3h-3zM35,33h3v2h-3zM20,34h3v2h-3zM40,34h3v2h-3zM25,35h2v1h-2zM36,35h3v1h-3zM21,36h6v1h-6zM30,36h3v8h-3zM36,36h7v1h-7zM21,37h5v2h-5zM37,37h5v2h-5zM22,39h4v1h-4zM37,39h4v1h-4zM22,40h3v1h-3zM38,40h3v1h-3zM31,44h3v3h-3zM32,47h3v1h-3zM51,47h3v1h-3zM32,48h4v1h-4zM50,48h4v1h-4zM33,49h4v1h-4zM49,49h4v1h-4zM34,50h5v1h-5zM48,50h5v1h-5zM35,51h6v1h-6zM46,51h6v1h-6zM36,52h14v1h-14zM38,53h10v1h-10z"/>
</svg>